<svg xmlns="http://www.w3.org/2000/svg" viewBox="0 0 128 128"><path fill="#f1c0c3" d="M17.5,93.9v-0.2c0-9.4,7.6-17,16.9-17l76-0.1l0.1,34.1l-76,0.1C25.2,110.9,17.6,103.3,17.5,93.9z"/><path fill="#fcf7cb" d="M22.6,82l53.6-54.4l24,24L46.6,106L22.6,82z"/><path fill="#454b54" d="M54.4,114.1c-1.7,0-3-1.3-3-3s1.3-3,3-3l53.1-0.1V79.9L78.1,80l0,0c-1.7,0-3-1.3-3-3s1.3-3,3-3 l32.3-0.1l0,0c0.8,0,1.6,0.3,2.1,0.9c0.6,0.6,0.9,1.3,0.9,2.1l0.1,34.1c0,1.7-1.3,3-3,3L54.4,114.1L54.4,114.1z"/><path fill="#454b54" d="M60.6,95c-0.8,0-1.5-0.3-2.1-0.9c-1.2-1.2-1.2-3.1,0-4.2L96,51.6L76.2,31.8L24.7,84.1 c-1.2,1.2-3.1,1.2-4.2,0c-1.2-1.2-1.2-3.1,0-4.2l53.6-54.4c0.6-0.6,1.3-0.9,2.1-0.9l0,0c0.8,0,1.6,0.3,2.1,0.9l24,24 c1.2,1.2,1.2,3,0,4.2L62.7,94.1C62.1,94.7,61.3,95,60.6,95z"/><path fill="#fff" d="M34.6,110.9c-9.3,0-16.9-7.601-16.9-16.9V17.1h33.8V94C51.5,103.3,44,110.9,34.6,110.9"/><path fill="#e5eff5" d="M51.5 57.2L17.7 57.2 17.7 76.8 51.5 76.8 51.5 57.2"/><path fill="#c1d8e8" d="M51.5 37.6L17.7 37.6 17.7 57.2 51.5 57.2 51.5 37.6"/><path fill="#98bed8" d="M17.7 17.1H51.5V36.7H17.7z"/><path fill="#454b54" d="M51.5 79.8H17.7c-1.7 0-3-1.3-3-3s1.3-3 3-3h33.8c1.7 0 3 1.3 3 3S53.2 79.8 51.5 79.8zM50.3 60.2H18.2c-1.7 0-3-1.3-3-3s1.3-3 3-3h32.1c1.7 0 3 1.3 3 3S51.9 60.2 50.3 60.2zM51.5 39.7H17.7c-1.7 0-3-1.3-3-3s1.3-3 3-3h33.8c1.7 0 3 1.3 3 3S53.2 39.7 51.5 39.7z"/><path fill="#454b54" d="M34.6,113.9c-11,0-19.9-8.9-19.9-19.9V17.1c0-1.7,1.3-3,3-3h33.8c1.7,0,3,1.3,3,3V94 C54.5,105,45.6,113.9,34.6,113.9z M20.7,20.1V94c0,7.7,6.2,13.9,13.9,13.9s13.9-6.2,13.9-13.9V20.1H20.7z"/><path fill="#454b54" d="M34.6,101.3c-4,0-7.2-3.3-7.2-7.3s3.2-7.3,7.2-7.3s7.2,3.3,7.2,7.3S38.6,101.3,34.6,101.3z M34.6,92.8c-0.7,0-1.2,0.6-1.2,1.3c0,0.7,0.5,1.3,1.2,1.3s1.2-0.6,1.2-1.3C35.9,93.3,35.3,92.8,34.6,92.8z"/></svg>